<svg width="120" height="26" viewBox="0 0 120 26" fill="none" xmlns="http://www.w3.org/2000/svg">
<mask id="path-1-outside-1_1_4" maskUnits="userSpaceOnUse" x="0.912003" y="0.803986" width="119" height="25" fill="black">
<rect fill="white" x="0.912003" y="0.803986" width="119" height="25"/>
<path d="M57.556 19.36C57.508 18.96 57.448 18.392 57.376 17.656C57.312 16.912 57.236 16.072 57.148 15.136C57.06 14.192 56.972 13.212 56.884 12.196C56.804 11.172 56.72 10.168 56.632 9.18399C56.552 8.19999 56.476 7.29599 56.404 6.47199C56.34 5.64799 56.284 4.96399 56.236 4.41999C56.196 3.87599 56.176 3.53999 56.176 3.41199C56.408 3.37199 56.744 3.32799 57.184 3.27999C57.632 3.23199 58.108 3.19199 58.612 3.15999C59.116 3.11999 59.572 3.09999 59.98 3.09999C61.404 3.09999 62.596 3.28799 63.556 3.66399C64.516 4.03999 65.28 4.58399 65.848 5.29599C66.416 6.00799 66.824 6.87199 67.072 7.88799C67.32 8.90399 67.444 10.048 67.444 11.32C67.444 12.816 67.256 14.072 66.88 15.088C66.504 16.104 65.92 16.92 65.128 17.536C64.336 18.144 63.312 18.592 62.056 18.88C60.808 19.16 59.308 19.32 57.556 19.36ZM59.776 16.888C61.088 16.8 62.128 16.548 62.896 16.132C63.664 15.708 64.216 15.104 64.552 14.32C64.888 13.528 65.056 12.54 65.056 11.356C65.056 10.14 64.9 9.06799 64.588 8.13999C64.284 7.21199 63.768 6.48799 63.04 5.96799C62.312 5.43999 61.316 5.17599 60.052 5.17599C59.86 5.17599 59.66 5.17999 59.452 5.18799C59.244 5.19599 59.044 5.20399 58.852 5.21199C58.932 6.41999 59.02 7.69999 59.116 9.05199C59.22 10.396 59.324 11.74 59.428 13.084C59.54 14.42 59.656 15.688 59.776 16.888Z"/>
<path d="M72.7272 8.36799C72.9672 7.95999 73.3152 7.58799 73.7712 7.25199C74.2352 6.91599 74.7552 6.64799 75.3312 6.44799C75.9152 6.24799 76.4992 6.14799 77.0832 6.14799C77.4592 6.14799 77.8392 6.18399 78.2232 6.25599C78.6072 6.31999 78.9072 6.41199 79.1232 6.53199L78.6432 8.94399C78.4512 8.86399 78.2032 8.77999 77.8992 8.69199C77.6032 8.59599 77.2352 8.54799 76.7952 8.54799C76.3232 8.54799 75.8512 8.63599 75.3792 8.81199C74.9152 8.97999 74.4872 9.21199 74.0952 9.50799C73.7032 9.80399 73.3752 10.144 73.1112 10.528C73.2232 11.088 73.3312 11.772 73.4352 12.58C73.5472 13.388 73.6472 14.216 73.7352 15.064C73.8232 15.912 73.8952 16.688 73.9512 17.392C74.0072 18.088 74.0352 18.612 74.0352 18.964C73.6912 18.996 73.2712 19.016 72.7752 19.024C72.2792 19.032 71.8232 19.032 71.4072 19.024C71.4072 18.28 71.3912 17.496 71.3592 16.672C71.3272 15.84 71.2752 14.992 71.2032 14.128C71.1392 13.256 71.0552 12.388 70.9512 11.524C70.8472 10.66 70.7232 9.82399 70.5792 9.01599C70.4432 8.19999 70.2872 7.42799 70.1112 6.69999C70.3272 6.63599 70.5792 6.57199 70.8672 6.50799C71.1632 6.44399 71.4352 6.38799 71.6832 6.33999C71.9312 6.29199 72.0992 6.26399 72.1872 6.25599C72.2912 6.52799 72.3992 6.87999 72.5112 7.31199C72.6232 7.74399 72.6952 8.09599 72.7272 8.36799Z"/>
<path d="M86.4464 19.372C84.3504 19.372 82.8024 18.788 81.8024 17.62C80.8024 16.452 80.3024 14.772 80.3024 12.58C80.3024 11.196 80.5584 10.028 81.0704 9.07599C81.5904 8.12399 82.3104 7.39999 83.2304 6.90399C84.1584 6.40799 85.2384 6.15999 86.4704 6.15999C87.7744 6.15999 88.8504 6.46399 89.6984 7.07199C90.5464 7.67199 91.1744 8.51199 91.5824 9.59199C91.9984 10.664 92.2064 11.912 92.2064 13.336C92.2064 14.56 91.9784 15.624 91.5224 16.528C91.0664 17.424 90.4064 18.124 89.5424 18.628C88.6864 19.124 87.6544 19.372 86.4464 19.372ZM86.3504 17.224C86.9984 17.224 87.5544 17.104 88.0184 16.864C88.4824 16.624 88.8584 16.304 89.1464 15.904C89.4344 15.496 89.6464 15.04 89.7824 14.536C89.9264 14.032 89.9984 13.516 89.9984 12.988C89.9984 12.028 89.8664 11.172 89.6024 10.42C89.3384 9.66799 88.9384 9.07999 88.4024 8.65599C87.8664 8.22399 87.1824 8.00799 86.3504 8.00799C85.5344 8.00799 84.8504 8.20399 84.2984 8.59599C83.7464 8.98799 83.3304 9.52799 83.0504 10.216C82.7784 10.904 82.6424 11.692 82.6424 12.58C82.6424 13.948 82.9584 15.064 83.5904 15.928C84.2224 16.792 85.1424 17.224 86.3504 17.224Z"/>
<path d="M94.2209 24.268C94.3489 23.06 94.4609 21.776 94.5569 20.416C94.6609 19.064 94.7489 17.7 94.8209 16.324C94.9009 14.948 94.9609 13.628 95.0009 12.364C95.0489 11.1 95.0849 9.94799 95.1089 8.90799C95.1329 7.85999 95.1449 6.99199 95.1449 6.30399C95.4649 6.20799 95.8409 6.13999 96.2729 6.09999C96.7049 6.05199 97.1129 6.02799 97.4969 6.02799C97.5049 6.23599 97.5089 6.52799 97.5089 6.90399C97.5169 7.27199 97.5209 7.59999 97.5209 7.88799C97.7209 7.66399 98.0209 7.41199 98.4209 7.13199C98.8289 6.84399 99.3249 6.59199 99.9089 6.37599C100.501 6.15999 101.153 6.05199 101.865 6.05199C103.441 6.05199 104.641 6.55599 105.465 7.56399C106.297 8.57199 106.713 9.97199 106.713 11.764C106.713 13.02 106.497 14.116 106.065 15.052C105.641 15.98 105.029 16.7 104.229 17.212C103.429 17.724 102.465 17.98 101.337 17.98C100.817 17.98 100.269 17.904 99.6929 17.752C99.1249 17.6 98.6129 17.42 98.1569 17.212C97.7009 16.996 97.3849 16.796 97.2089 16.612C97.2089 16.788 97.1929 17.108 97.1609 17.572C97.1369 18.036 97.1049 18.572 97.0649 19.18C97.0249 19.796 96.9809 20.42 96.9329 21.052C96.8849 21.684 96.8369 22.268 96.7889 22.804C96.7489 23.34 96.7049 23.756 96.6569 24.052C96.3849 24.1 96.0889 24.14 95.7689 24.172C95.4569 24.204 95.1609 24.228 94.8809 24.244C94.6009 24.26 94.3809 24.268 94.2209 24.268ZM101.013 15.616C101.821 15.616 102.465 15.452 102.945 15.124C103.433 14.796 103.785 14.328 104.001 13.72C104.217 13.104 104.325 12.372 104.325 11.524C104.325 10.428 104.065 9.57999 103.545 8.97999C103.025 8.37199 102.261 8.06799 101.253 8.06799C100.637 8.06799 100.069 8.17999 99.5489 8.40399C99.0289 8.62799 98.5929 8.87999 98.2409 9.15999C97.8889 9.43999 97.6409 9.67199 97.4969 9.85599C97.4969 9.99199 97.4889 10.248 97.4729 10.624C97.4649 11 97.4529 11.424 97.4369 11.896C97.4209 12.368 97.4049 12.82 97.3889 13.252C97.3809 13.676 97.3729 14.004 97.3649 14.236C97.5329 14.38 97.7809 14.564 98.1089 14.788C98.4369 15.004 98.8449 15.196 99.3329 15.364C99.8209 15.532 100.381 15.616 101.013 15.616Z"/>
<path d="M113.605 19.972C112.861 19.972 112.121 19.868 111.385 19.66C110.649 19.452 109.977 19.176 109.369 18.832C108.769 18.48 108.289 18.092 107.929 17.668C107.985 17.556 108.065 17.404 108.169 17.212C108.273 17.02 108.393 16.82 108.529 16.612C108.665 16.396 108.801 16.2 108.937 16.024C109.073 15.84 109.193 15.7 109.297 15.604C109.641 15.988 110.053 16.36 110.533 16.72C111.013 17.072 111.529 17.36 112.081 17.584C112.633 17.8 113.185 17.908 113.737 17.908C114.265 17.908 114.741 17.832 115.165 17.68C115.597 17.52 115.937 17.292 116.185 16.996C116.441 16.7 116.569 16.344 116.569 15.928C116.569 15.448 116.417 15.036 116.113 14.692C115.809 14.34 115.401 14.032 114.889 13.768C114.377 13.496 113.813 13.248 113.197 13.024C112.453 12.752 111.773 12.456 111.157 12.136C110.549 11.808 110.061 11.4 109.693 10.912C109.333 10.424 109.153 9.80399 109.153 9.05199C109.153 8.28399 109.369 7.64399 109.801 7.13199C110.241 6.61999 110.817 6.23199 111.529 5.96799C112.249 5.70399 113.025 5.57199 113.857 5.57199C114.785 5.57199 115.637 5.69199 116.413 5.93199C117.197 6.16399 117.797 6.43599 118.213 6.74799C118.181 6.88399 118.113 7.06399 118.009 7.28799C117.905 7.50399 117.785 7.72399 117.649 7.94799C117.513 8.17199 117.373 8.37599 117.229 8.55999C116.845 8.30399 116.377 8.05999 115.825 7.82799C115.273 7.59599 114.673 7.47999 114.025 7.47999C113.593 7.47999 113.177 7.53199 112.777 7.63599C112.377 7.73199 112.049 7.89599 111.793 8.12799C111.537 8.35999 111.409 8.67599 111.409 9.07599C111.409 9.41999 111.533 9.72799 111.781 9.99999C112.037 10.272 112.381 10.516 112.813 10.732C113.245 10.94 113.733 11.14 114.277 11.332C114.933 11.556 115.541 11.808 116.101 12.088C116.661 12.36 117.145 12.676 117.553 13.036C117.969 13.388 118.293 13.796 118.525 14.26C118.757 14.716 118.873 15.232 118.873 15.808C118.873 16.728 118.637 17.496 118.165 18.112C117.693 18.728 117.061 19.192 116.269 19.504C115.477 19.816 114.589 19.972 113.605 19.972Z"/>
<path d="M9.424 19.576C7.776 19.576 6.396 19.244 5.284 18.58C4.172 17.916 3.332 16.964 2.764 15.724C2.196 14.476 1.912 12.984 1.912 11.248C1.912 9.62399 2.172 8.18799 2.692 6.93999C3.22 5.69199 3.988 4.71599 4.996 4.01199C6.012 3.29999 7.252 2.94399 8.716 2.94399C9.636 2.94399 10.452 3.07999 11.164 3.35199C11.876 3.61599 12.48 3.95599 12.976 4.37199C13.48 4.78799 13.868 5.21599 14.14 5.65599C14.052 5.77599 13.904 5.93999 13.696 6.14799C13.488 6.34799 13.26 6.55199 13.012 6.75999C12.772 6.96799 12.54 7.13999 12.316 7.27599C11.988 6.76399 11.644 6.36399 11.284 6.07599C10.932 5.77999 10.54 5.57199 10.108 5.45199C9.676 5.33199 9.18 5.27199 8.62 5.27199C8.124 5.27199 7.624 5.39199 7.12 5.63199C6.624 5.87199 6.168 6.23599 5.752 6.72399C5.336 7.21199 5 7.82799 4.744 8.57199C4.496 9.31599 4.372 10.188 4.372 11.188C4.372 12.468 4.552 13.572 4.912 14.5C5.28 15.42 5.836 16.132 6.58 16.636C7.332 17.132 8.284 17.38 9.436 17.38C10.3 17.38 10.988 17.2 11.5 16.84C12.012 16.48 12.376 16.008 12.592 15.424C12.816 14.84 12.928 14.212 12.928 13.54C12.928 13.396 12.924 13.252 12.916 13.108C12.916 12.956 12.908 12.816 12.892 12.688C12.716 12.648 12.416 12.6 11.992 12.544C11.576 12.48 11.108 12.416 10.588 12.352C10.076 12.288 9.58 12.232 9.1 12.184C8.62 12.128 8.228 12.096 7.924 12.088C7.916 11.936 7.912 11.748 7.912 11.524C7.912 11.292 7.916 11.056 7.924 10.816C7.932 10.576 7.94 10.384 7.948 10.24C8.548 10.264 9.276 10.316 10.132 10.396C10.988 10.476 11.852 10.576 12.724 10.696C13.604 10.816 14.376 10.952 15.04 11.104C15.096 11.432 15.136 11.78 15.16 12.148C15.192 12.508 15.208 12.852 15.208 13.18C15.208 14.404 15.004 15.5 14.596 16.468C14.196 17.436 13.572 18.196 12.724 18.748C11.876 19.3 10.776 19.576 9.424 19.576Z"/>
<path d="M23.7447 18.232C23.5607 18.496 23.2327 18.76 22.7607 19.024C22.2887 19.296 21.7247 19.432 21.0687 19.432C20.1487 19.432 19.4647 19.192 19.0167 18.712C18.5687 18.224 18.2727 17.552 18.1287 16.696C17.9927 15.84 17.9247 14.864 17.9247 13.768C17.9247 13.064 17.9327 12.296 17.9487 11.464C17.9647 10.632 17.9847 9.77199 18.0087 8.88399C18.0407 7.99599 18.0727 7.12399 18.1047 6.26799C18.1367 5.40399 18.1687 4.59599 18.2007 3.84399C18.2327 3.08399 18.2647 2.41999 18.2967 1.85199C18.6647 1.81999 19.0007 1.80399 19.3047 1.80399C19.5127 1.80399 19.7207 1.81199 19.9287 1.82799C20.1367 1.84399 20.3487 1.86399 20.5647 1.88799C20.5327 2.46399 20.4967 3.14799 20.4567 3.93999C20.4167 4.72399 20.3727 5.55999 20.3247 6.44799C20.2847 7.33599 20.2487 8.22399 20.2167 9.11199C20.1847 9.99999 20.1567 10.828 20.1327 11.596C20.1087 12.364 20.0967 13.02 20.0967 13.564C20.0967 14.172 20.1287 14.76 20.1927 15.328C20.2567 15.888 20.3927 16.348 20.6007 16.708C20.8087 17.068 21.1247 17.248 21.5487 17.248C21.8767 17.248 22.1287 17.168 22.3047 17.008C22.4807 16.848 22.6327 16.644 22.7607 16.396C22.8087 16.46 22.8807 16.58 22.9767 16.756C23.0807 16.924 23.1847 17.116 23.2887 17.332C23.4007 17.54 23.4967 17.728 23.5767 17.896C23.6647 18.064 23.7207 18.176 23.7447 18.232Z"/>
<path d="M31.2511 19.372C29.1551 19.372 27.6071 18.788 26.6071 17.62C25.6071 16.452 25.1071 14.772 25.1071 12.58C25.1071 11.196 25.3631 10.028 25.8751 9.07599C26.3951 8.12399 27.1151 7.39999 28.0351 6.90399C28.9631 6.40799 30.0431 6.15999 31.2751 6.15999C32.5791 6.15999 33.6551 6.46399 34.5031 7.07199C35.3511 7.67199 35.9791 8.51199 36.3871 9.59199C36.8031 10.664 37.0111 11.912 37.0111 13.336C37.0111 14.56 36.7831 15.624 36.3271 16.528C35.8711 17.424 35.2111 18.124 34.3471 18.628C33.4911 19.124 32.4591 19.372 31.2511 19.372ZM31.1551 17.224C31.8031 17.224 32.3591 17.104 32.8231 16.864C33.2871 16.624 33.6631 16.304 33.9511 15.904C34.2391 15.496 34.4511 15.04 34.5871 14.536C34.7311 14.032 34.8031 13.516 34.8031 12.988C34.8031 12.028 34.6711 11.172 34.4071 10.42C34.1431 9.66799 33.7431 9.07999 33.2071 8.65599C32.6711 8.22399 31.9871 8.00799 31.1551 8.00799C30.3391 8.00799 29.6551 8.20399 29.1031 8.59599C28.5511 8.98799 28.1351 9.52799 27.8551 10.216C27.5831 10.904 27.4471 11.692 27.4471 12.58C27.4471 13.948 27.7631 15.064 28.3951 15.928C29.0271 16.792 29.9471 17.224 31.1551 17.224Z"/>
<path d="M43.2256 18.916C42.4496 18.916 41.8096 18.724 41.3056 18.34C40.8016 17.948 40.4016 17.416 40.1056 16.744C39.8176 16.064 39.6136 15.284 39.4936 14.404C39.3816 13.524 39.3256 12.588 39.3256 11.596C39.3256 10.732 39.3576 9.84799 39.4216 8.94399C39.4856 8.03999 39.5616 7.15599 39.6496 6.29199C39.9616 6.29199 40.3376 6.29999 40.7776 6.31599C41.2176 6.33199 41.5976 6.35199 41.9176 6.37599C41.8136 7.31999 41.7336 8.25599 41.6776 9.18399C41.6216 10.104 41.5936 10.976 41.5936 11.8C41.5936 12.72 41.6496 13.544 41.7616 14.272C41.8736 15 42.0656 15.576 42.3376 16C42.6176 16.424 42.9936 16.636 43.4656 16.636C43.8896 16.636 44.2496 16.452 44.5456 16.084C44.8496 15.708 45.0936 15.192 45.2776 14.536C45.4696 13.872 45.6096 13.108 45.6976 12.244C45.7856 11.372 45.8296 10.432 45.8296 9.42399C45.8296 9.00799 45.8256 8.52799 45.8176 7.98399C45.8096 7.43999 45.7976 6.95199 45.7816 6.51999C45.9496 6.51999 46.1696 6.52399 46.4416 6.53199C46.7136 6.53199 46.9856 6.53599 47.2576 6.54399C47.5296 6.54399 47.7456 6.55199 47.9056 6.56799C47.9056 6.95999 47.9056 7.34799 47.9056 7.73199C47.9056 8.11599 47.9056 8.49999 47.9056 8.88399C47.9056 10.028 47.9256 11.084 47.9656 12.052C48.0056 13.02 48.0896 13.864 48.2176 14.584C48.3456 15.296 48.5456 15.852 48.8176 16.252C49.0976 16.644 49.4736 16.84 49.9456 16.84C50.4096 16.84 50.7976 16.636 51.1096 16.228C51.4296 15.82 51.6856 15.264 51.8776 14.56C52.0696 13.848 52.2056 13.04 52.2856 12.136C52.3736 11.224 52.4176 10.276 52.4176 9.29199C52.4176 9.04399 52.4136 8.75599 52.4056 8.42799C52.4056 8.09999 52.4016 7.76799 52.3936 7.43199C52.3856 7.08799 52.3776 6.77999 52.3696 6.50799C52.5136 6.49999 52.6696 6.49599 52.8376 6.49599C53.0136 6.49599 53.1856 6.49599 53.3536 6.49599C53.5296 6.49599 53.7296 6.50399 53.9536 6.51999C54.1776 6.52799 54.3656 6.53999 54.5176 6.55599C54.5416 6.83599 54.5616 7.15599 54.5776 7.51599C54.5936 7.87599 54.6056 8.23199 54.6136 8.58399C54.6296 8.92799 54.6376 9.23999 54.6376 9.51999C54.6376 10.432 54.5856 11.336 54.4816 12.232C54.3856 13.128 54.2256 13.972 54.0016 14.764C53.7856 15.556 53.4976 16.256 53.1376 16.864C52.7856 17.472 52.3536 17.952 51.8416 18.304C51.3296 18.656 50.7216 18.832 50.0176 18.832C49.4736 18.832 49.0096 18.74 48.6256 18.556C48.2416 18.372 47.9256 18.128 47.6776 17.824C47.4296 17.512 47.2296 17.168 47.0776 16.792C46.9336 16.408 46.8256 16.016 46.7536 15.616C46.6816 15.208 46.6336 14.816 46.6096 14.44L47.0056 14.488C46.9656 15 46.8576 15.52 46.6816 16.048C46.5136 16.568 46.2736 17.044 45.9616 17.476C45.6496 17.908 45.2656 18.256 44.8096 18.52C44.3536 18.784 43.8256 18.916 43.2256 18.916Z"/>
</mask>
<path d="M57.556 19.36C57.508 18.96 57.448 18.392 57.376 17.656C57.312 16.912 57.236 16.072 57.148 15.136C57.06 14.192 56.972 13.212 56.884 12.196C56.804 11.172 56.72 10.168 56.632 9.18399C56.552 8.19999 56.476 7.29599 56.404 6.47199C56.34 5.64799 56.284 4.96399 56.236 4.41999C56.196 3.87599 56.176 3.53999 56.176 3.41199C56.408 3.37199 56.744 3.32799 57.184 3.27999C57.632 3.23199 58.108 3.19199 58.612 3.15999C59.116 3.11999 59.572 3.09999 59.98 3.09999C61.404 3.09999 62.596 3.28799 63.556 3.66399C64.516 4.03999 65.28 4.58399 65.848 5.29599C66.416 6.00799 66.824 6.87199 67.072 7.88799C67.32 8.90399 67.444 10.048 67.444 11.32C67.444 12.816 67.256 14.072 66.88 15.088C66.504 16.104 65.92 16.92 65.128 17.536C64.336 18.144 63.312 18.592 62.056 18.88C60.808 19.16 59.308 19.32 57.556 19.36ZM59.776 16.888C61.088 16.8 62.128 16.548 62.896 16.132C63.664 15.708 64.216 15.104 64.552 14.32C64.888 13.528 65.056 12.54 65.056 11.356C65.056 10.14 64.9 9.06799 64.588 8.13999C64.284 7.21199 63.768 6.48799 63.04 5.96799C62.312 5.43999 61.316 5.17599 60.052 5.17599C59.86 5.17599 59.66 5.17999 59.452 5.18799C59.244 5.19599 59.044 5.20399 58.852 5.21199C58.932 6.41999 59.02 7.69999 59.116 9.05199C59.22 10.396 59.324 11.74 59.428 13.084C59.54 14.42 59.656 15.688 59.776 16.888Z" fill="#047857"/>
<path d="M72.7272 8.36799C72.9672 7.95999 73.3152 7.58799 73.7712 7.25199C74.2352 6.91599 74.7552 6.64799 75.3312 6.44799C75.9152 6.24799 76.4992 6.14799 77.0832 6.14799C77.4592 6.14799 77.8392 6.18399 78.2232 6.25599C78.6072 6.31999 78.9072 6.41199 79.1232 6.53199L78.6432 8.94399C78.4512 8.86399 78.2032 8.77999 77.8992 8.69199C77.6032 8.59599 77.2352 8.54799 76.7952 8.54799C76.3232 8.54799 75.8512 8.63599 75.3792 8.81199C74.9152 8.97999 74.4872 9.21199 74.0952 9.50799C73.7032 9.80399 73.3752 10.144 73.1112 10.528C73.2232 11.088 73.3312 11.772 73.4352 12.58C73.5472 13.388 73.6472 14.216 73.7352 15.064C73.8232 15.912 73.8952 16.688 73.9512 17.392C74.0072 18.088 74.0352 18.612 74.0352 18.964C73.6912 18.996 73.2712 19.016 72.7752 19.024C72.2792 19.032 71.8232 19.032 71.4072 19.024C71.4072 18.28 71.3912 17.496 71.3592 16.672C71.3272 15.84 71.2752 14.992 71.2032 14.128C71.1392 13.256 71.0552 12.388 70.9512 11.524C70.8472 10.66 70.7232 9.82399 70.5792 9.01599C70.4432 8.19999 70.2872 7.42799 70.1112 6.69999C70.3272 6.63599 70.5792 6.57199 70.8672 6.50799C71.1632 6.44399 71.4352 6.38799 71.6832 6.33999C71.9312 6.29199 72.0992 6.26399 72.1872 6.25599C72.2912 6.52799 72.3992 6.87999 72.5112 7.31199C72.6232 7.74399 72.6952 8.09599 72.7272 8.36799Z" fill="#047857"/>
<path d="M86.4464 19.372C84.3504 19.372 82.8024 18.788 81.8024 17.62C80.8024 16.452 80.3024 14.772 80.3024 12.58C80.3024 11.196 80.5584 10.028 81.0704 9.07599C81.5904 8.12399 82.3104 7.39999 83.2304 6.90399C84.1584 6.40799 85.2384 6.15999 86.4704 6.15999C87.7744 6.15999 88.8504 6.46399 89.6984 7.07199C90.5464 7.67199 91.1744 8.51199 91.5824 9.59199C91.9984 10.664 92.2064 11.912 92.2064 13.336C92.2064 14.56 91.9784 15.624 91.5224 16.528C91.0664 17.424 90.4064 18.124 89.5424 18.628C88.6864 19.124 87.6544 19.372 86.4464 19.372ZM86.3504 17.224C86.9984 17.224 87.5544 17.104 88.0184 16.864C88.4824 16.624 88.8584 16.304 89.1464 15.904C89.4344 15.496 89.6464 15.04 89.7824 14.536C89.9264 14.032 89.9984 13.516 89.9984 12.988C89.9984 12.028 89.8664 11.172 89.6024 10.42C89.3384 9.66799 88.9384 9.07999 88.4024 8.65599C87.8664 8.22399 87.1824 8.00799 86.3504 8.00799C85.5344 8.00799 84.8504 8.20399 84.2984 8.59599C83.7464 8.98799 83.3304 9.52799 83.0504 10.216C82.7784 10.904 82.6424 11.692 82.6424 12.58C82.6424 13.948 82.9584 15.064 83.5904 15.928C84.2224 16.792 85.1424 17.224 86.3504 17.224Z" fill="#047857"/>
<path d="M94.2209 24.268C94.3489 23.06 94.4609 21.776 94.5569 20.416C94.6609 19.064 94.7489 17.7 94.8209 16.324C94.9009 14.948 94.9609 13.628 95.0009 12.364C95.0489 11.1 95.0849 9.94799 95.1089 8.90799C95.1329 7.85999 95.1449 6.99199 95.1449 6.30399C95.4649 6.20799 95.8409 6.13999 96.2729 6.09999C96.7049 6.05199 97.1129 6.02799 97.4969 6.02799C97.5049 6.23599 97.5089 6.52799 97.5089 6.90399C97.5169 7.27199 97.5209 7.59999 97.5209 7.88799C97.7209 7.66399 98.0209 7.41199 98.4209 7.13199C98.8289 6.84399 99.3249 6.59199 99.9089 6.37599C100.501 6.15999 101.153 6.05199 101.865 6.05199C103.441 6.05199 104.641 6.55599 105.465 7.56399C106.297 8.57199 106.713 9.97199 106.713 11.764C106.713 13.02 106.497 14.116 106.065 15.052C105.641 15.98 105.029 16.7 104.229 17.212C103.429 17.724 102.465 17.98 101.337 17.98C100.817 17.98 100.269 17.904 99.6929 17.752C99.1249 17.6 98.6129 17.42 98.1569 17.212C97.7009 16.996 97.3849 16.796 97.2089 16.612C97.2089 16.788 97.1929 17.108 97.1609 17.572C97.1369 18.036 97.1049 18.572 97.0649 19.18C97.0249 19.796 96.9809 20.42 96.9329 21.052C96.8849 21.684 96.8369 22.268 96.7889 22.804C96.7489 23.34 96.7049 23.756 96.6569 24.052C96.3849 24.1 96.0889 24.14 95.7689 24.172C95.4569 24.204 95.1609 24.228 94.8809 24.244C94.6009 24.26 94.3809 24.268 94.2209 24.268ZM101.013 15.616C101.821 15.616 102.465 15.452 102.945 15.124C103.433 14.796 103.785 14.328 104.001 13.72C104.217 13.104 104.325 12.372 104.325 11.524C104.325 10.428 104.065 9.57999 103.545 8.97999C103.025 8.37199 102.261 8.06799 101.253 8.06799C100.637 8.06799 100.069 8.17999 99.5489 8.40399C99.0289 8.62799 98.5929 8.87999 98.2409 9.15999C97.8889 9.43999 97.6409 9.67199 97.4969 9.85599C97.4969 9.99199 97.4889 10.248 97.4729 10.624C97.4649 11 97.4529 11.424 97.4369 11.896C97.4209 12.368 97.4049 12.82 97.3889 13.252C97.3809 13.676 97.3729 14.004 97.3649 14.236C97.5329 14.38 97.7809 14.564 98.1089 14.788C98.4369 15.004 98.8449 15.196 99.3329 15.364C99.8209 15.532 100.381 15.616 101.013 15.616Z" fill="#047857"/>
<path d="M113.605 19.972C112.861 19.972 112.121 19.868 111.385 19.66C110.649 19.452 109.977 19.176 109.369 18.832C108.769 18.48 108.289 18.092 107.929 17.668C107.985 17.556 108.065 17.404 108.169 17.212C108.273 17.02 108.393 16.82 108.529 16.612C108.665 16.396 108.801 16.2 108.937 16.024C109.073 15.84 109.193 15.7 109.297 15.604C109.641 15.988 110.053 16.36 110.533 16.72C111.013 17.072 111.529 17.36 112.081 17.584C112.633 17.8 113.185 17.908 113.737 17.908C114.265 17.908 114.741 17.832 115.165 17.68C115.597 17.52 115.937 17.292 116.185 16.996C116.441 16.7 116.569 16.344 116.569 15.928C116.569 15.448 116.417 15.036 116.113 14.692C115.809 14.34 115.401 14.032 114.889 13.768C114.377 13.496 113.813 13.248 113.197 13.024C112.453 12.752 111.773 12.456 111.157 12.136C110.549 11.808 110.061 11.4 109.693 10.912C109.333 10.424 109.153 9.80399 109.153 9.05199C109.153 8.28399 109.369 7.64399 109.801 7.13199C110.241 6.61999 110.817 6.23199 111.529 5.96799C112.249 5.70399 113.025 5.57199 113.857 5.57199C114.785 5.57199 115.637 5.69199 116.413 5.93199C117.197 6.16399 117.797 6.43599 118.213 6.74799C118.181 6.88399 118.113 7.06399 118.009 7.28799C117.905 7.50399 117.785 7.72399 117.649 7.94799C117.513 8.17199 117.373 8.37599 117.229 8.55999C116.845 8.30399 116.377 8.05999 115.825 7.82799C115.273 7.59599 114.673 7.47999 114.025 7.47999C113.593 7.47999 113.177 7.53199 112.777 7.63599C112.377 7.73199 112.049 7.89599 111.793 8.12799C111.537 8.35999 111.409 8.67599 111.409 9.07599C111.409 9.41999 111.533 9.72799 111.781 9.99999C112.037 10.272 112.381 10.516 112.813 10.732C113.245 10.94 113.733 11.14 114.277 11.332C114.933 11.556 115.541 11.808 116.101 12.088C116.661 12.36 117.145 12.676 117.553 13.036C117.969 13.388 118.293 13.796 118.525 14.26C118.757 14.716 118.873 15.232 118.873 15.808C118.873 16.728 118.637 17.496 118.165 18.112C117.693 18.728 117.061 19.192 116.269 19.504C115.477 19.816 114.589 19.972 113.605 19.972Z" fill="#047857"/>
<path d="M9.424 19.576C7.776 19.576 6.396 19.244 5.284 18.58C4.172 17.916 3.332 16.964 2.764 15.724C2.196 14.476 1.912 12.984 1.912 11.248C1.912 9.62399 2.172 8.18799 2.692 6.93999C3.22 5.69199 3.988 4.71599 4.996 4.01199C6.012 3.29999 7.252 2.94399 8.716 2.94399C9.636 2.94399 10.452 3.07999 11.164 3.35199C11.876 3.61599 12.48 3.95599 12.976 4.37199C13.48 4.78799 13.868 5.21599 14.14 5.65599C14.052 5.77599 13.904 5.93999 13.696 6.14799C13.488 6.34799 13.26 6.55199 13.012 6.75999C12.772 6.96799 12.54 7.13999 12.316 7.27599C11.988 6.76399 11.644 6.36399 11.284 6.07599C10.932 5.77999 10.54 5.57199 10.108 5.45199C9.676 5.33199 9.18 5.27199 8.62 5.27199C8.124 5.27199 7.624 5.39199 7.12 5.63199C6.624 5.87199 6.168 6.23599 5.752 6.72399C5.336 7.21199 5 7.82799 4.744 8.57199C4.496 9.31599 4.372 10.188 4.372 11.188C4.372 12.468 4.552 13.572 4.912 14.5C5.28 15.42 5.836 16.132 6.58 16.636C7.332 17.132 8.284 17.38 9.436 17.38C10.3 17.38 10.988 17.2 11.5 16.84C12.012 16.48 12.376 16.008 12.592 15.424C12.816 14.84 12.928 14.212 12.928 13.54C12.928 13.396 12.924 13.252 12.916 13.108C12.916 12.956 12.908 12.816 12.892 12.688C12.716 12.648 12.416 12.6 11.992 12.544C11.576 12.48 11.108 12.416 10.588 12.352C10.076 12.288 9.58 12.232 9.1 12.184C8.62 12.128 8.228 12.096 7.924 12.088C7.916 11.936 7.912 11.748 7.912 11.524C7.912 11.292 7.916 11.056 7.924 10.816C7.932 10.576 7.94 10.384 7.948 10.24C8.548 10.264 9.276 10.316 10.132 10.396C10.988 10.476 11.852 10.576 12.724 10.696C13.604 10.816 14.376 10.952 15.04 11.104C15.096 11.432 15.136 11.78 15.16 12.148C15.192 12.508 15.208 12.852 15.208 13.18C15.208 14.404 15.004 15.5 14.596 16.468C14.196 17.436 13.572 18.196 12.724 18.748C11.876 19.3 10.776 19.576 9.424 19.576Z" fill="#BBF7D0"/>
<path d="M23.7447 18.232C23.5607 18.496 23.2327 18.76 22.7607 19.024C22.2887 19.296 21.7247 19.432 21.0687 19.432C20.1487 19.432 19.4647 19.192 19.0167 18.712C18.5687 18.224 18.2727 17.552 18.1287 16.696C17.9927 15.84 17.9247 14.864 17.9247 13.768C17.9247 13.064 17.9327 12.296 17.9487 11.464C17.9647 10.632 17.9847 9.77199 18.0087 8.88399C18.0407 7.99599 18.0727 7.12399 18.1047 6.26799C18.1367 5.40399 18.1687 4.59599 18.2007 3.84399C18.2327 3.08399 18.2647 2.41999 18.2967 1.85199C18.6647 1.81999 19.0007 1.80399 19.3047 1.80399C19.5127 1.80399 19.7207 1.81199 19.9287 1.82799C20.1367 1.84399 20.3487 1.86399 20.5647 1.88799C20.5327 2.46399 20.4967 3.14799 20.4567 3.93999C20.4167 4.72399 20.3727 5.55999 20.3247 6.44799C20.2847 7.33599 20.2487 8.22399 20.2167 9.11199C20.1847 9.99999 20.1567 10.828 20.1327 11.596C20.1087 12.364 20.0967 13.02 20.0967 13.564C20.0967 14.172 20.1287 14.76 20.1927 15.328C20.2567 15.888 20.3927 16.348 20.6007 16.708C20.8087 17.068 21.1247 17.248 21.5487 17.248C21.8767 17.248 22.1287 17.168 22.3047 17.008C22.4807 16.848 22.6327 16.644 22.7607 16.396C22.8087 16.46 22.8807 16.58 22.9767 16.756C23.0807 16.924 23.1847 17.116 23.2887 17.332C23.4007 17.54 23.4967 17.728 23.5767 17.896C23.6647 18.064 23.7207 18.176 23.7447 18.232Z" fill="#BBF7D0"/>
<path d="M31.2511 19.372C29.1551 19.372 27.6071 18.788 26.6071 17.62C25.6071 16.452 25.1071 14.772 25.1071 12.58C25.1071 11.196 25.3631 10.028 25.8751 9.07599C26.3951 8.12399 27.1151 7.39999 28.0351 6.90399C28.9631 6.40799 30.0431 6.15999 31.2751 6.15999C32.5791 6.15999 33.6551 6.46399 34.5031 7.07199C35.3511 7.67199 35.9791 8.51199 36.3871 9.59199C36.8031 10.664 37.0111 11.912 37.0111 13.336C37.0111 14.56 36.7831 15.624 36.3271 16.528C35.8711 17.424 35.2111 18.124 34.3471 18.628C33.4911 19.124 32.4591 19.372 31.2511 19.372ZM31.1551 17.224C31.8031 17.224 32.3591 17.104 32.8231 16.864C33.2871 16.624 33.6631 16.304 33.9511 15.904C34.2391 15.496 34.4511 15.04 34.5871 14.536C34.7311 14.032 34.8031 13.516 34.8031 12.988C34.8031 12.028 34.6711 11.172 34.4071 10.42C34.1431 9.66799 33.7431 9.07999 33.2071 8.65599C32.6711 8.22399 31.9871 8.00799 31.1551 8.00799C30.3391 8.00799 29.6551 8.20399 29.1031 8.59599C28.5511 8.98799 28.1351 9.52799 27.8551 10.216C27.5831 10.904 27.4471 11.692 27.4471 12.58C27.4471 13.948 27.7631 15.064 28.3951 15.928C29.0271 16.792 29.9471 17.224 31.1551 17.224Z" fill="#BBF7D0"/>
<path d="M43.2256 18.916C42.4496 18.916 41.8096 18.724 41.3056 18.34C40.8016 17.948 40.4016 17.416 40.1056 16.744C39.8176 16.064 39.6136 15.284 39.4936 14.404C39.3816 13.524 39.3256 12.588 39.3256 11.596C39.3256 10.732 39.3576 9.84799 39.4216 8.94399C39.4856 8.03999 39.5616 7.15599 39.6496 6.29199C39.9616 6.29199 40.3376 6.29999 40.7776 6.31599C41.2176 6.33199 41.5976 6.35199 41.9176 6.37599C41.8136 7.31999 41.7336 8.25599 41.6776 9.18399C41.6216 10.104 41.5936 10.976 41.5936 11.8C41.5936 12.72 41.6496 13.544 41.7616 14.272C41.8736 15 42.0656 15.576 42.3376 16C42.6176 16.424 42.9936 16.636 43.4656 16.636C43.8896 16.636 44.2496 16.452 44.5456 16.084C44.8496 15.708 45.0936 15.192 45.2776 14.536C45.4696 13.872 45.6096 13.108 45.6976 12.244C45.7856 11.372 45.8296 10.432 45.8296 9.42399C45.8296 9.00799 45.8256 8.52799 45.8176 7.98399C45.8096 7.43999 45.7976 6.95199 45.7816 6.51999C45.9496 6.51999 46.1696 6.52399 46.4416 6.53199C46.7136 6.53199 46.9856 6.53599 47.2576 6.54399C47.5296 6.54399 47.7456 6.55199 47.9056 6.56799C47.9056 6.95999 47.9056 7.34799 47.9056 7.73199C47.9056 8.11599 47.9056 8.49999 47.9056 8.88399C47.9056 10.028 47.9256 11.084 47.9656 12.052C48.0056 13.02 48.0896 13.864 48.2176 14.584C48.3456 15.296 48.5456 15.852 48.8176 16.252C49.0976 16.644 49.4736 16.84 49.9456 16.84C50.4096 16.84 50.7976 16.636 51.1096 16.228C51.4296 15.82 51.6856 15.264 51.8776 14.56C52.0696 13.848 52.2056 13.04 52.2856 12.136C52.3736 11.224 52.4176 10.276 52.4176 9.29199C52.4176 9.04399 52.4136 8.75599 52.4056 8.42799C52.4056 8.09999 52.4016 7.76799 52.3936 7.43199C52.3856 7.08799 52.3776 6.77999 52.3696 6.50799C52.5136 6.49999 52.6696 6.49599 52.8376 6.49599C53.0136 6.49599 53.1856 6.49599 53.3536 6.49599C53.5296 6.49599 53.7296 6.50399 53.9536 6.51999C54.1776 6.52799 54.3656 6.53999 54.5176 6.55599C54.5416 6.83599 54.5616 7.15599 54.5776 7.51599C54.5936 7.87599 54.6056 8.23199 54.6136 8.58399C54.6296 8.92799 54.6376 9.23999 54.6376 9.51999C54.6376 10.432 54.5856 11.336 54.4816 12.232C54.3856 13.128 54.2256 13.972 54.0016 14.764C53.7856 15.556 53.4976 16.256 53.1376 16.864C52.7856 17.472 52.3536 17.952 51.8416 18.304C51.3296 18.656 50.7216 18.832 50.0176 18.832C49.4736 18.832 49.0096 18.74 48.6256 18.556C48.2416 18.372 47.9256 18.128 47.6776 17.824C47.4296 17.512 47.2296 17.168 47.0776 16.792C46.9336 16.408 46.8256 16.016 46.7536 15.616C46.6816 15.208 46.6336 14.816 46.6096 14.44L47.0056 14.488C46.9656 15 46.8576 15.52 46.6816 16.048C46.5136 16.568 46.2736 17.044 45.9616 17.476C45.6496 17.908 45.2656 18.256 44.8096 18.52C44.3536 18.784 43.8256 18.916 43.2256 18.916Z" fill="#BBF7D0"/>
<path d="M57.556 19.36C57.508 18.96 57.448 18.392 57.376 17.656C57.312 16.912 57.236 16.072 57.148 15.136C57.06 14.192 56.972 13.212 56.884 12.196C56.804 11.172 56.72 10.168 56.632 9.18399C56.552 8.19999 56.476 7.29599 56.404 6.47199C56.34 5.64799 56.284 4.96399 56.236 4.41999C56.196 3.87599 56.176 3.53999 56.176 3.41199C56.408 3.37199 56.744 3.32799 57.184 3.27999C57.632 3.23199 58.108 3.19199 58.612 3.15999C59.116 3.11999 59.572 3.09999 59.98 3.09999C61.404 3.09999 62.596 3.28799 63.556 3.66399C64.516 4.03999 65.28 4.58399 65.848 5.29599C66.416 6.00799 66.824 6.87199 67.072 7.88799C67.32 8.90399 67.444 10.048 67.444 11.32C67.444 12.816 67.256 14.072 66.88 15.088C66.504 16.104 65.92 16.92 65.128 17.536C64.336 18.144 63.312 18.592 62.056 18.88C60.808 19.16 59.308 19.32 57.556 19.36ZM59.776 16.888C61.088 16.8 62.128 16.548 62.896 16.132C63.664 15.708 64.216 15.104 64.552 14.32C64.888 13.528 65.056 12.54 65.056 11.356C65.056 10.14 64.9 9.06799 64.588 8.13999C64.284 7.21199 63.768 6.48799 63.04 5.96799C62.312 5.43999 61.316 5.17599 60.052 5.17599C59.86 5.17599 59.66 5.17999 59.452 5.18799C59.244 5.19599 59.044 5.20399 58.852 5.21199C58.932 6.41999 59.02 7.69999 59.116 9.05199C59.22 10.396 59.324 11.74 59.428 13.084C59.54 14.42 59.656 15.688 59.776 16.888Z" stroke="#BBF7D0" stroke-width="2" style="mix-blend-mode:soft-light" mask="url(#path-1-outside-1_1_4)"/>
<path d="M72.7272 8.36799C72.9672 7.95999 73.3152 7.58799 73.7712 7.25199C74.2352 6.91599 74.7552 6.64799 75.3312 6.44799C75.9152 6.24799 76.4992 6.14799 77.0832 6.14799C77.4592 6.14799 77.8392 6.18399 78.2232 6.25599C78.6072 6.31999 78.9072 6.41199 79.1232 6.53199L78.6432 8.94399C78.4512 8.86399 78.2032 8.77999 77.8992 8.69199C77.6032 8.59599 77.2352 8.54799 76.7952 8.54799C76.3232 8.54799 75.8512 8.63599 75.3792 8.81199C74.9152 8.97999 74.4872 9.21199 74.0952 9.50799C73.7032 9.80399 73.3752 10.144 73.1112 10.528C73.2232 11.088 73.3312 11.772 73.4352 12.58C73.5472 13.388 73.6472 14.216 73.7352 15.064C73.8232 15.912 73.8952 16.688 73.9512 17.392C74.0072 18.088 74.0352 18.612 74.0352 18.964C73.6912 18.996 73.2712 19.016 72.7752 19.024C72.2792 19.032 71.8232 19.032 71.4072 19.024C71.4072 18.28 71.3912 17.496 71.3592 16.672C71.3272 15.84 71.2752 14.992 71.2032 14.128C71.1392 13.256 71.0552 12.388 70.9512 11.524C70.8472 10.66 70.7232 9.82399 70.5792 9.01599C70.4432 8.19999 70.2872 7.42799 70.1112 6.69999C70.3272 6.63599 70.5792 6.57199 70.8672 6.50799C71.1632 6.44399 71.4352 6.38799 71.6832 6.33999C71.9312 6.29199 72.0992 6.26399 72.1872 6.25599C72.2912 6.52799 72.3992 6.87999 72.5112 7.31199C72.6232 7.74399 72.6952 8.09599 72.7272 8.36799Z" stroke="#BBF7D0" stroke-width="2" style="mix-blend-mode:soft-light" mask="url(#path-1-outside-1_1_4)"/>
<path d="M86.4464 19.372C84.3504 19.372 82.8024 18.788 81.8024 17.62C80.8024 16.452 80.3024 14.772 80.3024 12.58C80.3024 11.196 80.5584 10.028 81.0704 9.07599C81.5904 8.12399 82.3104 7.39999 83.2304 6.90399C84.1584 6.40799 85.2384 6.15999 86.4704 6.15999C87.7744 6.15999 88.8504 6.46399 89.6984 7.07199C90.5464 7.67199 91.1744 8.51199 91.5824 9.59199C91.9984 10.664 92.2064 11.912 92.2064 13.336C92.2064 14.56 91.9784 15.624 91.5224 16.528C91.0664 17.424 90.4064 18.124 89.5424 18.628C88.6864 19.124 87.6544 19.372 86.4464 19.372ZM86.3504 17.224C86.9984 17.224 87.5544 17.104 88.0184 16.864C88.4824 16.624 88.8584 16.304 89.1464 15.904C89.4344 15.496 89.6464 15.04 89.7824 14.536C89.9264 14.032 89.9984 13.516 89.9984 12.988C89.9984 12.028 89.8664 11.172 89.6024 10.42C89.3384 9.66799 88.9384 9.07999 88.4024 8.65599C87.8664 8.22399 87.1824 8.00799 86.3504 8.00799C85.5344 8.00799 84.8504 8.20399 84.2984 8.59599C83.7464 8.98799 83.3304 9.52799 83.0504 10.216C82.7784 10.904 82.6424 11.692 82.6424 12.58C82.6424 13.948 82.9584 15.064 83.5904 15.928C84.2224 16.792 85.1424 17.224 86.3504 17.224Z" stroke="#BBF7D0" stroke-width="2" style="mix-blend-mode:soft-light" mask="url(#path-1-outside-1_1_4)"/>
<path d="M94.2209 24.268C94.3489 23.06 94.4609 21.776 94.5569 20.416C94.6609 19.064 94.7489 17.7 94.8209 16.324C94.9009 14.948 94.9609 13.628 95.0009 12.364C95.0489 11.1 95.0849 9.94799 95.1089 8.90799C95.1329 7.85999 95.1449 6.99199 95.1449 6.30399C95.4649 6.20799 95.8409 6.13999 96.2729 6.09999C96.7049 6.05199 97.1129 6.02799 97.4969 6.02799C97.5049 6.23599 97.5089 6.52799 97.5089 6.90399C97.5169 7.27199 97.5209 7.59999 97.5209 7.88799C97.7209 7.66399 98.0209 7.41199 98.4209 7.13199C98.8289 6.84399 99.3249 6.59199 99.9089 6.37599C100.501 6.15999 101.153 6.05199 101.865 6.05199C103.441 6.05199 104.641 6.55599 105.465 7.56399C106.297 8.57199 106.713 9.97199 106.713 11.764C106.713 13.02 106.497 14.116 106.065 15.052C105.641 15.98 105.029 16.7 104.229 17.212C103.429 17.724 102.465 17.98 101.337 17.98C100.817 17.98 100.269 17.904 99.6929 17.752C99.1249 17.6 98.6129 17.42 98.1569 17.212C97.7009 16.996 97.3849 16.796 97.2089 16.612C97.2089 16.788 97.1929 17.108 97.1609 17.572C97.1369 18.036 97.1049 18.572 97.0649 19.18C97.0249 19.796 96.9809 20.42 96.9329 21.052C96.8849 21.684 96.8369 22.268 96.7889 22.804C96.7489 23.34 96.7049 23.756 96.6569 24.052C96.3849 24.1 96.0889 24.14 95.7689 24.172C95.4569 24.204 95.1609 24.228 94.8809 24.244C94.6009 24.26 94.3809 24.268 94.2209 24.268ZM101.013 15.616C101.821 15.616 102.465 15.452 102.945 15.124C103.433 14.796 103.785 14.328 104.001 13.72C104.217 13.104 104.325 12.372 104.325 11.524C104.325 10.428 104.065 9.57999 103.545 8.97999C103.025 8.37199 102.261 8.06799 101.253 8.06799C100.637 8.06799 100.069 8.17999 99.5489 8.40399C99.0289 8.62799 98.5929 8.87999 98.2409 9.15999C97.8889 9.43999 97.6409 9.67199 97.4969 9.85599C97.4969 9.99199 97.4889 10.248 97.4729 10.624C97.4649 11 97.4529 11.424 97.4369 11.896C97.4209 12.368 97.4049 12.82 97.3889 13.252C97.3809 13.676 97.3729 14.004 97.3649 14.236C97.5329 14.38 97.7809 14.564 98.1089 14.788C98.4369 15.004 98.8449 15.196 99.3329 15.364C99.8209 15.532 100.381 15.616 101.013 15.616Z" stroke="#BBF7D0" stroke-width="2" style="mix-blend-mode:soft-light" mask="url(#path-1-outside-1_1_4)"/>
<path d="M113.605 19.972C112.861 19.972 112.121 19.868 111.385 19.66C110.649 19.452 109.977 19.176 109.369 18.832C108.769 18.48 108.289 18.092 107.929 17.668C107.985 17.556 108.065 17.404 108.169 17.212C108.273 17.02 108.393 16.82 108.529 16.612C108.665 16.396 108.801 16.2 108.937 16.024C109.073 15.84 109.193 15.7 109.297 15.604C109.641 15.988 110.053 16.36 110.533 16.72C111.013 17.072 111.529 17.36 112.081 17.584C112.633 17.8 113.185 17.908 113.737 17.908C114.265 17.908 114.741 17.832 115.165 17.68C115.597 17.52 115.937 17.292 116.185 16.996C116.441 16.7 116.569 16.344 116.569 15.928C116.569 15.448 116.417 15.036 116.113 14.692C115.809 14.34 115.401 14.032 114.889 13.768C114.377 13.496 113.813 13.248 113.197 13.024C112.453 12.752 111.773 12.456 111.157 12.136C110.549 11.808 110.061 11.4 109.693 10.912C109.333 10.424 109.153 9.80399 109.153 9.05199C109.153 8.28399 109.369 7.64399 109.801 7.13199C110.241 6.61999 110.817 6.23199 111.529 5.96799C112.249 5.70399 113.025 5.57199 113.857 5.57199C114.785 5.57199 115.637 5.69199 116.413 5.93199C117.197 6.16399 117.797 6.43599 118.213 6.74799C118.181 6.88399 118.113 7.06399 118.009 7.28799C117.905 7.50399 117.785 7.72399 117.649 7.94799C117.513 8.17199 117.373 8.37599 117.229 8.55999C116.845 8.30399 116.377 8.05999 115.825 7.82799C115.273 7.59599 114.673 7.47999 114.025 7.47999C113.593 7.47999 113.177 7.53199 112.777 7.63599C112.377 7.73199 112.049 7.89599 111.793 8.12799C111.537 8.35999 111.409 8.67599 111.409 9.07599C111.409 9.41999 111.533 9.72799 111.781 9.99999C112.037 10.272 112.381 10.516 112.813 10.732C113.245 10.94 113.733 11.14 114.277 11.332C114.933 11.556 115.541 11.808 116.101 12.088C116.661 12.36 117.145 12.676 117.553 13.036C117.969 13.388 118.293 13.796 118.525 14.26C118.757 14.716 118.873 15.232 118.873 15.808C118.873 16.728 118.637 17.496 118.165 18.112C117.693 18.728 117.061 19.192 116.269 19.504C115.477 19.816 114.589 19.972 113.605 19.972Z" stroke="#BBF7D0" stroke-width="2" style="mix-blend-mode:soft-light" mask="url(#path-1-outside-1_1_4)"/>
<path d="M9.424 19.576C7.776 19.576 6.396 19.244 5.284 18.58C4.172 17.916 3.332 16.964 2.764 15.724C2.196 14.476 1.912 12.984 1.912 11.248C1.912 9.62399 2.172 8.18799 2.692 6.93999C3.22 5.69199 3.988 4.71599 4.996 4.01199C6.012 3.29999 7.252 2.94399 8.716 2.94399C9.636 2.94399 10.452 3.07999 11.164 3.35199C11.876 3.61599 12.48 3.95599 12.976 4.37199C13.48 4.78799 13.868 5.21599 14.14 5.65599C14.052 5.77599 13.904 5.93999 13.696 6.14799C13.488 6.34799 13.26 6.55199 13.012 6.75999C12.772 6.96799 12.54 7.13999 12.316 7.27599C11.988 6.76399 11.644 6.36399 11.284 6.07599C10.932 5.77999 10.54 5.57199 10.108 5.45199C9.676 5.33199 9.18 5.27199 8.62 5.27199C8.124 5.27199 7.624 5.39199 7.12 5.63199C6.624 5.87199 6.168 6.23599 5.752 6.72399C5.336 7.21199 5 7.82799 4.744 8.57199C4.496 9.31599 4.372 10.188 4.372 11.188C4.372 12.468 4.552 13.572 4.912 14.5C5.28 15.42 5.836 16.132 6.58 16.636C7.332 17.132 8.284 17.38 9.436 17.38C10.3 17.38 10.988 17.2 11.5 16.84C12.012 16.48 12.376 16.008 12.592 15.424C12.816 14.84 12.928 14.212 12.928 13.54C12.928 13.396 12.924 13.252 12.916 13.108C12.916 12.956 12.908 12.816 12.892 12.688C12.716 12.648 12.416 12.6 11.992 12.544C11.576 12.48 11.108 12.416 10.588 12.352C10.076 12.288 9.58 12.232 9.1 12.184C8.62 12.128 8.228 12.096 7.924 12.088C7.916 11.936 7.912 11.748 7.912 11.524C7.912 11.292 7.916 11.056 7.924 10.816C7.932 10.576 7.94 10.384 7.948 10.24C8.548 10.264 9.276 10.316 10.132 10.396C10.988 10.476 11.852 10.576 12.724 10.696C13.604 10.816 14.376 10.952 15.04 11.104C15.096 11.432 15.136 11.78 15.16 12.148C15.192 12.508 15.208 12.852 15.208 13.18C15.208 14.404 15.004 15.5 14.596 16.468C14.196 17.436 13.572 18.196 12.724 18.748C11.876 19.3 10.776 19.576 9.424 19.576Z" stroke="#BBF7D0" stroke-width="2" style="mix-blend-mode:soft-light" mask="url(#path-1-outside-1_1_4)"/>
<path d="M23.7447 18.232C23.5607 18.496 23.2327 18.76 22.7607 19.024C22.2887 19.296 21.7247 19.432 21.0687 19.432C20.1487 19.432 19.4647 19.192 19.0167 18.712C18.5687 18.224 18.2727 17.552 18.1287 16.696C17.9927 15.84 17.9247 14.864 17.9247 13.768C17.9247 13.064 17.9327 12.296 17.9487 11.464C17.9647 10.632 17.9847 9.77199 18.0087 8.88399C18.0407 7.99599 18.0727 7.12399 18.1047 6.26799C18.1367 5.40399 18.1687 4.59599 18.2007 3.84399C18.2327 3.08399 18.2647 2.41999 18.2967 1.85199C18.6647 1.81999 19.0007 1.80399 19.3047 1.80399C19.5127 1.80399 19.7207 1.81199 19.9287 1.82799C20.1367 1.84399 20.3487 1.86399 20.5647 1.88799C20.5327 2.46399 20.4967 3.14799 20.4567 3.93999C20.4167 4.72399 20.3727 5.55999 20.3247 6.44799C20.2847 7.33599 20.2487 8.22399 20.2167 9.11199C20.1847 9.99999 20.1567 10.828 20.1327 11.596C20.1087 12.364 20.0967 13.02 20.0967 13.564C20.0967 14.172 20.1287 14.76 20.1927 15.328C20.2567 15.888 20.3927 16.348 20.6007 16.708C20.8087 17.068 21.1247 17.248 21.5487 17.248C21.8767 17.248 22.1287 17.168 22.3047 17.008C22.4807 16.848 22.6327 16.644 22.7607 16.396C22.8087 16.46 22.8807 16.58 22.9767 16.756C23.0807 16.924 23.1847 17.116 23.2887 17.332C23.4007 17.54 23.4967 17.728 23.5767 17.896C23.6647 18.064 23.7207 18.176 23.7447 18.232Z" stroke="#BBF7D0" stroke-width="2" style="mix-blend-mode:soft-light" mask="url(#path-1-outside-1_1_4)"/>
<path d="M31.2511 19.372C29.1551 19.372 27.6071 18.788 26.6071 17.62C25.6071 16.452 25.1071 14.772 25.1071 12.58C25.1071 11.196 25.3631 10.028 25.8751 9.07599C26.3951 8.12399 27.1151 7.39999 28.0351 6.90399C28.9631 6.40799 30.0431 6.15999 31.2751 6.15999C32.5791 6.15999 33.6551 6.46399 34.5031 7.07199C35.3511 7.67199 35.9791 8.51199 36.3871 9.59199C36.8031 10.664 37.0111 11.912 37.0111 13.336C37.0111 14.56 36.7831 15.624 36.3271 16.528C35.8711 17.424 35.2111 18.124 34.3471 18.628C33.4911 19.124 32.4591 19.372 31.2511 19.372ZM31.1551 17.224C31.8031 17.224 32.3591 17.104 32.8231 16.864C33.2871 16.624 33.6631 16.304 33.9511 15.904C34.2391 15.496 34.4511 15.04 34.5871 14.536C34.7311 14.032 34.8031 13.516 34.8031 12.988C34.8031 12.028 34.6711 11.172 34.4071 10.42C34.1431 9.66799 33.7431 9.07999 33.2071 8.65599C32.6711 8.22399 31.9871 8.00799 31.1551 8.00799C30.3391 8.00799 29.6551 8.20399 29.1031 8.59599C28.5511 8.98799 28.1351 9.52799 27.8551 10.216C27.5831 10.904 27.4471 11.692 27.4471 12.58C27.4471 13.948 27.7631 15.064 28.3951 15.928C29.0271 16.792 29.9471 17.224 31.1551 17.224Z" stroke="#BBF7D0" stroke-width="2" style="mix-blend-mode:soft-light" mask="url(#path-1-outside-1_1_4)"/>
<path d="M43.2256 18.916C42.4496 18.916 41.8096 18.724 41.3056 18.34C40.8016 17.948 40.4016 17.416 40.1056 16.744C39.8176 16.064 39.6136 15.284 39.4936 14.404C39.3816 13.524 39.3256 12.588 39.3256 11.596C39.3256 10.732 39.3576 9.84799 39.4216 8.94399C39.4856 8.03999 39.5616 7.15599 39.6496 6.29199C39.9616 6.29199 40.3376 6.29999 40.7776 6.31599C41.2176 6.33199 41.5976 6.35199 41.9176 6.37599C41.8136 7.31999 41.7336 8.25599 41.6776 9.18399C41.6216 10.104 41.5936 10.976 41.5936 11.8C41.5936 12.72 41.6496 13.544 41.7616 14.272C41.8736 15 42.0656 15.576 42.3376 16C42.6176 16.424 42.9936 16.636 43.4656 16.636C43.8896 16.636 44.2496 16.452 44.5456 16.084C44.8496 15.708 45.0936 15.192 45.2776 14.536C45.4696 13.872 45.6096 13.108 45.6976 12.244C45.7856 11.372 45.8296 10.432 45.8296 9.42399C45.8296 9.00799 45.8256 8.52799 45.8176 7.98399C45.8096 7.43999 45.7976 6.95199 45.7816 6.51999C45.9496 6.51999 46.1696 6.52399 46.4416 6.53199C46.7136 6.53199 46.9856 6.53599 47.2576 6.54399C47.5296 6.54399 47.7456 6.55199 47.9056 6.56799C47.9056 6.95999 47.9056 7.34799 47.9056 7.73199C47.9056 8.11599 47.9056 8.49999 47.9056 8.88399C47.9056 10.028 47.9256 11.084 47.9656 12.052C48.0056 13.02 48.0896 13.864 48.2176 14.584C48.3456 15.296 48.5456 15.852 48.8176 16.252C49.0976 16.644 49.4736 16.84 49.9456 16.84C50.4096 16.84 50.7976 16.636 51.1096 16.228C51.4296 15.82 51.6856 15.264 51.8776 14.56C52.0696 13.848 52.2056 13.04 52.2856 12.136C52.3736 11.224 52.4176 10.276 52.4176 9.29199C52.4176 9.04399 52.4136 8.75599 52.4056 8.42799C52.4056 8.09999 52.4016 7.76799 52.3936 7.43199C52.3856 7.08799 52.3776 6.77999 52.3696 6.50799C52.5136 6.49999 52.6696 6.49599 52.8376 6.49599C53.0136 6.49599 53.1856 6.49599 53.3536 6.49599C53.5296 6.49599 53.7296 6.50399 53.9536 6.51999C54.1776 6.52799 54.3656 6.53999 54.5176 6.55599C54.5416 6.83599 54.5616 7.15599 54.5776 7.51599C54.5936 7.87599 54.6056 8.23199 54.6136 8.58399C54.6296 8.92799 54.6376 9.23999 54.6376 9.51999C54.6376 10.432 54.5856 11.336 54.4816 12.232C54.3856 13.128 54.2256 13.972 54.0016 14.764C53.7856 15.556 53.4976 16.256 53.1376 16.864C52.7856 17.472 52.3536 17.952 51.8416 18.304C51.3296 18.656 50.7216 18.832 50.0176 18.832C49.4736 18.832 49.0096 18.74 48.6256 18.556C48.2416 18.372 47.9256 18.128 47.6776 17.824C47.4296 17.512 47.2296 17.168 47.0776 16.792C46.9336 16.408 46.8256 16.016 46.7536 15.616C46.6816 15.208 46.6336 14.816 46.6096 14.44L47.0056 14.488C46.9656 15 46.8576 15.52 46.6816 16.048C46.5136 16.568 46.2736 17.044 45.9616 17.476C45.6496 17.908 45.2656 18.256 44.8096 18.52C44.3536 18.784 43.8256 18.916 43.2256 18.916Z" stroke="#BBF7D0" stroke-width="2" style="mix-blend-mode:soft-light" mask="url(#path-1-outside-1_1_4)"/>
</svg>
