<svg width="8" height="26" viewBox="0 0 8 26" fill="none" xmlns="http://www.w3.org/2000/svg">
<path d="M2.208 5.188C2.483 4.345 2.928 3.723 3.148 3.14C3.4 2.46 3.6 1.815 2.5 0C3.44864 0.7457 4.2382 1.67398 4.822 2.73C5.48117 3.83472 5.88152 5.07441 5.993 6.356C6.02 7.879 5.117 9.206 4.007 9.21C4.522 9.205 4.802 8.818 4.888 8.31C4.96279 7.77421 4.90051 7.2282 4.707 6.723C4.569 6.358 4.043 5.393 4 5.317C3.958 5.393 3.432 6.358 3.294 6.723C3.0995 7.22795 3.0372 7.77422 3.113 8.31C3.12092 8.52756 3.20412 8.73563 3.34838 8.89867C3.49264 9.06172 3.68902 9.16964 3.904 9.204C3.50341 9.15765 3.12584 8.99252 2.81986 8.72984C2.51388 8.46716 2.29347 8.11896 2.187 7.73C1.93933 6.89968 1.94664 6.01412 2.208 5.188ZM6.808 13.127V14.4C6.808 14.5591 6.74479 14.7117 6.63226 14.8243C6.51974 14.9368 6.36713 15 6.208 15C6.04887 15 5.89626 14.9368 5.78374 14.8243C5.67121 14.7117 5.608 14.5591 5.608 14.4V12.8C5.608 12.5 5.456 12.27 5.322 12.27C5.188 12.27 5.036 12.497 5.036 12.8V17.987C5.036 18.677 4.645 19.216 4.146 19.216C3.647 19.216 3.256 18.677 3.256 17.987V13.153C3.26213 13.0856 3.25414 13.0177 3.23255 12.9535C3.21096 12.8894 3.17624 12.8305 3.13061 12.7805C3.08498 12.7305 3.02943 12.6906 2.96752 12.6633C2.9056 12.636 2.83867 12.6219 2.771 12.6219C2.70333 12.6219 2.6364 12.636 2.57448 12.6633C2.51257 12.6906 2.45702 12.7305 2.41139 12.7805C2.36576 12.8305 2.33104 12.8894 2.30945 12.9535C2.28786 13.0177 2.27987 13.0856 2.286 13.153V14.742C2.25642 15.0172 2.12019 15.2698 1.90651 15.4457C1.69284 15.6216 1.41874 15.7068 1.143 15.683C1.02345 15.6829 0.904441 15.6671 0.788999 15.636V26H7.2V12.925L7.165 12.932C6.949 12.976 6.858 13 6.81 13.127H6.808ZM3.678 9.127V11.227H4.318V9.127H3.678ZM7.729 11.217C7.64152 10.9761 7.48096 10.7685 7.26976 10.6233C7.05856 10.4781 6.80727 10.4024 6.551 10.407H4.32V10.2H3.68V10.4H1.448C1.17998 10.394 0.917404 10.4762 0.700615 10.6339C0.483825 10.7916 0.324812 11.0162 0.248 11.273C0.222657 11.3669 0.209879 11.4637 0.21 11.561V14.739C0.222281 14.8997 0.285402 15.0523 0.390219 15.1748C0.495036 15.2972 0.636107 15.3831 0.793 15.42C0.907497 15.4562 1.02692 15.4744 1.147 15.474C1.36798 15.4973 1.58935 15.4336 1.76411 15.2964C1.93887 15.1592 2.05327 14.9592 2.083 14.739V13.153C2.07676 13.0584 2.09002 12.9634 2.12195 12.8741C2.15388 12.7848 2.2038 12.703 2.26862 12.6338C2.33344 12.5646 2.41179 12.5094 2.4988 12.4716C2.58582 12.4339 2.67966 12.4144 2.7745 12.4144C2.86934 12.4144 2.96318 12.4339 3.0502 12.4716C3.13721 12.5094 3.21556 12.5646 3.28038 12.6338C3.3452 12.703 3.39512 12.7848 3.42705 12.8741C3.45898 12.9634 3.47224 13.0584 3.466 13.153V17.991C3.466 18.557 3.772 19.015 4.15 19.015C4.528 19.015 4.834 18.557 4.834 17.991V12.8C4.834 12.394 5.054 12.064 5.325 12.064C5.596 12.064 5.818 12.394 5.818 12.8V14.4C5.81532 14.4531 5.82345 14.5061 5.84192 14.556C5.86038 14.6058 5.88878 14.6514 5.9254 14.6899C5.96202 14.7284 6.00609 14.7591 6.05493 14.78C6.10376 14.801 6.15635 14.8118 6.2095 14.8118C6.26264 14.8118 6.31523 14.801 6.36407 14.78C6.41291 14.7591 6.45698 14.7284 6.4936 14.6899C6.53022 14.6514 6.55862 14.6058 6.57708 14.556C6.59555 14.5061 6.60368 14.4531 6.601 14.4V13.092C6.701 12.786 6.953 12.768 7.201 12.715C7.36589 12.6956 7.51717 12.6141 7.624 12.487C7.69989 12.3854 7.75433 12.2693 7.784 12.146V11.564C7.78525 11.4462 7.76735 11.329 7.731 11.217H7.729Z" fill="url(#paint0_linear_2_6)"/>
<defs>
<linearGradient id="paint0_linear_2_6" x1="3.99703" y1="0" x2="3.99703" y2="26" gradientUnits="userSpaceOnUse">
<stop stop-color="#047857"/>
<stop offset="1" stop-color="#BBF7D0"/>
</linearGradient>
</defs>
</svg>
